<svg width="648" height="944" viewBox="0 0 648 944" fill="none" xmlns="http://www.w3.org/2000/svg">
<path d="M352.945 0C442.373 0 507.773 21.079 549.145 63.2371C590.516 105.395 611.202 168.424 611.202 252.322C611.202 315.768 603.678 393.058 581.112 433.964C558.546 474.87 520.727 505.549 467.655 526.002L647.14 943.894H584.735L384.809 483.981C437.401 482.753 478.179 465.662 507.145 432.712C537.233 398.484 548.518 322.447 548.518 254.827C548.518 185.955 533.056 136.283 502.132 105.813C471.626 75.3419 423.359 60.1066 357.332 60.1066H210.125L184.361 0H352.945Z" fill="#80FFD6"/>
<path d="M455.468 943.894L63.206 0H0V943.894H62.4051V171.296L393.062 943.894H455.468Z" fill="#80FFD6"/>
</svg>
