<svg width="3000" height="944" viewBox="0 0 3000 944" fill="none" xmlns="http://www.w3.org/2000/svg">
<path d="M3000 943.894H2934.11L2792.65 510.039L2628.58 943.894H2564.64L2762.29 442.894L2592.41 0H2658.94L2799.11 392.536L2935.41 0H3000L2833.35 457.098L3000 943.894Z" fill="#101010"/>
<path d="M2233.18 943.894V0H2296.48V943.894H2233.18Z" fill="#101010"/>
<path d="M861.77 943.894H798.468V60.6881H610.5V0H1049.74V60.6881H861.77V943.894Z" fill="#101010"/>
<path d="M342.348 943.894H0V0H342.348V60.6881H63.302V419.006H326.845V479.695H63.302V883.206H342.348V943.894Z" fill="#101010"/>
<path d="M1670.84 0C1760.26 0 1825.66 21.079 1867.04 63.2371C1908.41 105.395 1929.09 168.424 1929.09 252.322C1929.09 315.768 1921.57 393.058 1899 433.964C1876.44 474.87 1838.62 505.549 1785.55 526.002L1965.03 943.894H1902.63L1702.7 483.981C1755.29 482.753 1796.07 465.662 1825.04 432.712C1855.12 398.484 1866.41 322.447 1866.41 254.827C1866.41 185.955 1850.95 136.283 1820.02 105.813C1789.52 75.3419 1741.25 60.1066 1675.22 60.1066H1528.02L1502.25 0H1670.84Z" fill="#80FFD6"/>
<path d="M1773.36 943.894L1381.1 0H1317.89V943.894H1380.3V171.296L1710.95 943.894H1773.36Z" fill="#80FFD6"/>
</svg>
